<svg xmlns="http://www.w3.org/2000/svg" style="display: none;">
  <symbol id="icon-varejo" viewBox="0 0 24 24">
    <path d="M6 2L3 6v14a2 2 0 0 0 2 2h14a2 2 0 0 0 2-2V6l-3-4z"/>
    <line x1="3" y1="6" x2="21" y2="6"/>
    <path d="M16 10a4 4 0 0 1-8 0"/>
  </symbol>
  <symbol id="icon-servicos" viewBox="0 0 24 24">
    <path d="M14.7 6.3a1 1 0 0 0 0 1.4l1.6 1.6a1 1 0 0 0 1.4 0l3.77-3.77a6 6 0 0 1-7.94 7.94l-6.91 6.91a2.12 2.12 0 0 1-3-3l6.91-6.91a6 6 0 0 1 7.94-7.94l-3.76 3.76z"/>
  </symbol>
  <symbol id="icon-distribuidores" viewBox="0 0 24 24">
    <path d="M17 21v-2a4 4 0 0 0-4-4H5a4 4 0 0 0-4 4v2"/>
    <circle cx="9" cy="7" r="4"/>
    <path d="M23 21v-2a4 4 0 0 0-3-3.87"/>
    <path d="M16 3.13a4 4 0 0 1 0 7.75"/>
  </symbol>
  <symbol id="icon-industrias" viewBox="0 0 24 24">
    <path d="M21.21 15.89A10 10 0 1 1 8 2.83"/>
    <path d="M22 12A10 10 0 0 0 12 2v10z"/>
  </symbol>
  <symbol id="icon-centralizada" viewBox="0 0 24 24">
    <path d="M12 22s8-4 8-10V5l-8-3-8 3v7c0 6 8 10 8 10z"/>
  </symbol>
  <symbol id="icon-reducao" viewBox="0 0 24 24">
    <polyline points="20 6 9 17 4 12"/>
  </symbol>
  <symbol id="icon-decisoes" viewBox="0 0 24 24">
    <path d="M2.5 2v6h6M21.5 22v-6h-6"/>
    <path d="M22 11.5A10 10 0 0 0 3.5 12.5"/>
    <path d="M2 12.5a10 10 0 0 0 18.5-1"/>
  </symbol>
  <symbol id="icon-otimizacao" viewBox="0 0 24 24">
    <circle cx="12" cy="12" r="10"/>
    <polyline points="12 6 12 12 16 14"/>
  </symbol>
</svg>